<?xml version="1.0" encoding="UTF-8" standalone="no"?>
<svg
   xmlns:dc="http://purl.org/dc/elements/1.1/"
   xmlns:cc="http://creativecommons.org/ns#"
   xmlns:rdf="http://www.w3.org/1999/02/22-rdf-syntax-ns#"
   xmlns:svg="http://www.w3.org/2000/svg"
   xmlns="http://www.w3.org/2000/svg"
   xmlns:sodipodi="http://sodipodi.sourceforge.net/DTD/sodipodi-0.dtd"
   xmlns:inkscape="http://www.inkscape.org/namespaces/inkscape"
   viewBox="0 0 100 50"
   version="1.1"
   id="svg8"
   inkscape:version="1.0.1 (3bc2e813f5, 2020-09-07)"
   sodipodi:docname="bleakKing.svg">
  <defs
     id="defs2" />
  <sodipodi:namedview
     id="base"
     pagecolor="#ffffff"
     bordercolor="#666666"
     borderopacity="1.0"
     inkscape:pageopacity="0.0"
     inkscape:pageshadow="2"
     inkscape:zoom="0.9899495"
     inkscape:cx="-245.72261"
     inkscape:cy="0.42953438"
     inkscape:document-units="mm"
     inkscape:current-layer="layer1"
     inkscape:document-rotation="0"
     showgrid="false"
     inkscape:window-width="1920"
     inkscape:window-height="1080"
     inkscape:window-x="0"
     inkscape:window-y="197"
     inkscape:window-maximized="1" />
  <metadata
     id="metadata5">
    <rdf:RDF>
      <cc:Work
         rdf:about="">
        <dc:format>image/svg+xml</dc:format>
        <dc:type
           rdf:resource="http://purl.org/dc/dcmitype/StillImage" />
        <dc:title />
      </cc:Work>
    </rdf:RDF>
  </metadata>
  <g
     inkscape:label="Layer 1"
     inkscape:groupmode="layer"
     id="layer1"
     transform="translate(-22.906335,-12.95035)">
    <g
       id="g31"
       transform="matrix(1.4032544,0,0,2.041733,-34.567549,-139.89489)"
       style="fill:#552200">
      <rect
         style="fill:#552200;stroke-width:0.188082"
         id="rect26"
         width="71.262917"
         height="24.489"
         x="40.957565"
         y="74.860542" />
    </g>
    <rect
       style="fill:#ffff00;stroke-width:0.264583"
       id="rect623"
       width="10"
       height="10"
       x="91.156982"
       y="17.358734" />
    <rect
       style="fill:#008000;stroke-width:0.264583"
       id="rect623-3"
       width="10"
       height="10"
       x="91.156982"
       y="27.358734" />
    <rect
       style="fill:#00ff00;stroke-width:0.264583"
       id="rect623-6"
       width="10"
       height="10"
       x="91.156982"
       y="37.358734" />
    <rect
       style="fill:#00ffff;stroke-width:0.264583"
       id="rect623-7"
       width="10"
       height="10"
       x="91.156982"
       y="47.358734" />
    <text
       xml:space="preserve"
       style="font-style:normal;font-weight:normal;font-size:10.5833px;line-height:1.25;font-family:sans-serif;fill:#ffffff;fill-opacity:1;stroke:none;stroke-width:0.264583;"
       x="102.14028"
       y="26.486996"
       id="text815"><tspan
         sodipodi:role="line"
         id="tspan813"
         x="102.14028"
         y="26.486996"
         style="stroke-width:0.264583;fill:#ffffff;">x 5</tspan></text>
    <text
       xml:space="preserve"
       style="font-style:normal;font-weight:normal;font-size:10.5833px;line-height:1.25;font-family:sans-serif;fill:#ffffff;fill-opacity:1;stroke:none;stroke-width:0.264583"
       x="101.94375"
       y="36.303913"
       id="text815-5"><tspan
         sodipodi:role="line"
         id="tspan813-3"
         x="101.94375"
         y="36.303913"
         style="fill:#ffffff;stroke-width:0.264583">x 5</tspan></text>
    <text
       xml:space="preserve"
       style="font-style:normal;font-weight:normal;font-size:10.5833px;line-height:1.25;font-family:sans-serif;fill:#ffffff;fill-opacity:1;stroke:none;stroke-width:0.264583"
       x="102.24226"
       y="46.55505"
       id="text815-56"><tspan
         sodipodi:role="line"
         id="tspan813-2"
         x="102.24226"
         y="46.55505"
         style="fill:#ffffff;stroke-width:0.264583">x 5</tspan></text>
    <text
       xml:space="preserve"
       style="font-style:normal;font-weight:normal;font-size:10.5833px;line-height:1.25;font-family:sans-serif;fill:#ffffff;fill-opacity:1;stroke:none;stroke-width:0.264583"
       x="102.57433"
       y="56.146507"
       id="text815-9"><tspan
         sodipodi:role="line"
         id="tspan813-1"
         x="102.57433"
         y="56.146507"
         style="fill:#ffffff;stroke-width:0.264583">x 5</tspan></text>
    <g
       id="g71"
       transform="translate(8.1634246,11.635022)">
      <g
         id="g419"
         transform="matrix(0.04596369,0,0,0.04596369,16.863568,15.160801)">
        <g
           id="g417">
          <path
             d="m 256,458.1 c -5.9,-2 -188.4,-60.9 -202.4,-333 7,0.5 122.3,11.2 202.4,-63.7 78.9,73.8 195.4,64.1 202.4,63.7 -17.2,280.2 -196.5,331 -202.4,333 z M 479.7,81.3 C 437,87.8 340,92.3 269.6,16.9 262.3,9 249.8,9 242.5,16.9 172,92.3 75,87.8 32.3,81.3 20.9,79.5 10.7,88.5 11,100 c 9.9,350.5 245,401 245,401 0,0 235.1,-50.4 245,-401 0.3,-11.5 -9.9,-20.5 -21.3,-18.7 z"
             id="path415" />
        </g>
      </g>
      <path
         style="fill:#ffffff;stroke-width:0.133635"
         d="m 27.560731,35.667123 c -4.275416,-2.21353 -7.056389,-6.559341 -7.931555,-12.394586 -0.110234,-0.734992 -0.200779,-1.569374 -0.201212,-1.854183 -7.68e-4,-0.505169 0.0091,-0.515857 0.403459,-0.436985 0.640334,0.128067 3.157565,-0.176315 4.374457,-0.528956 1.341582,-0.388776 2.789378,-1.094092 3.744628,-1.824255 l 0.705699,-0.539414 0.296562,0.27196 c 1.593829,1.461609 4.86872,2.567771 7.613066,2.571469 1.509268,0.002 1.387583,-0.205537 1.108496,1.890864 -0.818764,6.150223 -3.610793,10.694252 -7.890461,12.841726 -1.109294,0.556628 -1.152491,0.556673 -2.223139,0.0024 z"
         id="path476" />
    </g>
    <text
       xml:space="preserve"
       style="font-style:normal;font-weight:normal;font-size:10.5833px;line-height:1.25;font-family:sans-serif;fill:#000000;fill-opacity:1;stroke:none;stroke-width:0.264583"
       x="30.007277"
       y="41.1278"
       id="text360"><tspan
         sodipodi:role="line"
         id="tspan358"
         x="30.007277"
         y="41.1278"
         style="stroke-width:0.264583">10</tspan></text>
    <polygon
       style="fill:#fddf7f"
       points="443.96,404.728 68.04,404.728 37.813,163.204 165.466,298.397 256,163.204 346.534,298.397 474.187,163.204 "
       id="polygon458"
       transform="matrix(0.04775847,0,0,0.04775847,56.560064,26.479174)" />
    <g
       id="g466"
       transform="matrix(0.04775847,0,0,0.04775847,56.560064,26.479174)">
      <circle
         style="fill:#fc6760"
         cx="256"
         cy="135.14"
         r="27.863001"
         id="circle460" />
      <circle
         style="fill:#fc6760"
         cx="38.063"
         cy="135.14"
         r="27.863001"
         id="circle462" />
      <circle
         style="fill:#fc6760"
         cx="473.93701"
         cy="135.14"
         r="27.863001"
         id="circle464" />
    </g>
    <g
       id="g472"
       transform="matrix(0.04775847,0,0,0.04775847,56.560064,26.479174)">
      <path
         style="fill:#00537b"
         d="m 512,135.137 c 0,-20.988 -17.074,-38.062 -38.062,-38.062 -20.987,0 -38.061,17.074 -38.061,38.062 0,14.231 7.855,26.655 19.453,33.185 L 347.896,282.1 272.461,169.453 c 12.769,-6.15 21.603,-19.22 21.603,-34.316 0,-20.988 -17.074,-38.062 -38.062,-38.062 -20.988,0 -38.062,17.074 -38.062,38.062 0,15.096 8.834,28.166 21.603,34.316 L 164.105,282.1 56.672,168.323 C 68.27,161.793 76.125,149.37 76.125,135.138 76.125,114.15 59.051,97.076 38.064,97.076 17.074,97.075 0,114.149 0,135.137 c 0,17.735 12.193,32.674 28.636,36.879 L 57.92,405.994 c 0.639,5.104 4.977,8.932 10.121,8.932 h 375.92 c 5.143,0 9.481,-3.829 10.121,-8.932 L 483.365,172.017 C 499.807,167.812 512,152.873 512,135.137 Z M 256,117.473 c 9.74,0 17.664,7.924 17.664,17.664 0,9.74 -7.925,17.664 -17.664,17.664 -9.739,0 -17.664,-7.925 -17.664,-17.664 0,-9.739 7.924,-17.664 17.664,-17.664 z M 20.398,135.137 c 0,-9.74 7.925,-17.664 17.664,-17.664 9.739,0 17.663,7.924 17.663,17.664 0,9.74 -7.924,17.664 -17.663,17.664 -9.739,0 -17.664,-7.923 -17.664,-17.664 z m 414.56,259.392 H 77.042 l -2.093,-16.721 h 282.45 c 5.632,0 10.199,-4.566 10.199,-10.199 0,-5.633 -4.567,-10.199 -10.199,-10.199 H 72.396 L 51.805,192.878 158.05,305.399 c 2.13,2.256 5.164,3.421 8.264,3.162 3.092,-0.258 5.899,-1.91 7.626,-4.489 L 256,181.534 338.06,304.073 c 1.726,2.578 4.533,4.23 7.626,4.489 3.08,0.261 6.134,-0.906 8.264,-3.162 L 460.195,192.878 Z m 38.98,-241.728 c -9.74,0 -17.663,-7.925 -17.663,-17.664 0,-9.739 7.924,-17.664 17.663,-17.664 9.739,0 17.664,7.924 17.664,17.664 0,9.741 -7.925,17.664 -17.664,17.664 z"
         id="path468" />
      <path
         style="fill:#00537b"
         d="m 390.897,377.808 h 6.338 c 5.632,0 10.199,-4.566 10.199,-10.199 0,-5.633 -4.567,-10.199 -10.199,-10.199 h -6.338 c -5.632,0 -10.199,4.566 -10.199,10.199 0,5.633 4.566,10.199 10.199,10.199 z"
         id="path470" />
    </g>
    <path
       d="m 74.858974,35.567622 c 0.09555,-0.201152 0.07944,-0.429188 -0.0039,-0.618487 0.02357,-0.215397 -0.02857,-0.4341 -0.217427,-0.601847 -0.175772,-0.156136 -0.351514,-0.312364 -0.527169,-0.468532 -0.308897,-0.274476 -0.792593,-0.361107 -1.093044,0 -1.364688,1.639971 -2.791787,3.208711 -4.271209,4.720343 -1.09989,-1.109573 -2.213144,-2.20408 -3.318435,-3.300012 -0.387916,-0.38475 -0.949415,-0.264018 -1.193472,0.19433 -0.355501,0.190542 -0.643658,0.43895 -0.881933,0.862923 -0.113454,0.202001 -0.104621,0.456986 0,0.659712 0.713545,1.381564 2.092755,2.596257 3.22675,3.714106 -0.151744,0.146679 -0.302358,0.294753 -0.457164,0.438342 -1.527802,1.416847 -2.558345,2.31581 -0.6464,3.768544 0.02583,0.01962 0.05214,0.01528 0.07827,0.02674 0.03663,0.01825 0.07179,0.0311 0.112385,0.03831 0.01269,5.65e-4 0.02446,0.0028 0.03683,0.0018 0.03938,0.0035 0.07787,0.01427 0.117744,0.0058 1.02793,-0.217639 1.983854,-1.087536 2.851165,-2.045456 0.844885,0.899327 1.744532,1.758492 2.733804,2.268281 0.235534,0.121405 0.516338,0.05065 0.697668,-0.11916 0.304035,0.02479 0.581256,-0.179235 0.720389,-0.472443 0.02062,-0.01377 0.03388,-0.02161 0.05617,-0.03669 0.442033,-0.298211 0.48243,-0.892116 0.155337,-1.301479 -0.738604,-0.92427 -1.523725,-1.802895 -2.324096,-2.66594 1.441103,-1.520634 3.240536,-3.160636 4.147963,-5.069174 z"
       id="path137"
       style="fill:#d40000;stroke-width:0.0291692" />
    <g
       id="g474"
       transform="matrix(0.04775847,0,0,0.04775847,56.560064,26.479174)" />
    <g
       id="g476"
       transform="matrix(0.04775847,0,0,0.04775847,56.560064,26.479174)" />
    <g
       id="g478"
       transform="matrix(0.04775847,0,0,0.04775847,56.560064,26.479174)" />
    <g
       id="g480"
       transform="matrix(0.04775847,0,0,0.04775847,56.560064,26.479174)" />
    <g
       id="g482"
       transform="matrix(0.04775847,0,0,0.04775847,56.560064,26.479174)" />
    <g
       id="g484"
       transform="matrix(0.04775847,0,0,0.04775847,56.560064,26.479174)" />
    <g
       id="g486"
       transform="matrix(0.04775847,0,0,0.04775847,56.560064,26.479174)" />
    <g
       id="g488"
       transform="matrix(0.04775847,0,0,0.04775847,56.560064,26.479174)" />
    <g
       id="g490"
       transform="matrix(0.04775847,0,0,0.04775847,56.560064,26.479174)" />
    <g
       id="g492"
       transform="matrix(0.04775847,0,0,0.04775847,56.560064,26.479174)" />
    <g
       id="g494"
       transform="matrix(0.04775847,0,0,0.04775847,56.560064,26.479174)" />
    <g
       id="g496"
       transform="matrix(0.04775847,0,0,0.04775847,56.560064,26.479174)" />
    <g
       id="g498"
       transform="matrix(0.04775847,0,0,0.04775847,56.560064,26.479174)" />
    <g
       id="g500"
       transform="matrix(0.04775847,0,0,0.04775847,56.560064,26.479174)" />
    <g
       id="g502"
       transform="matrix(0.04775847,0,0,0.04775847,56.560064,26.479174)" />
  </g>
</svg>
