<?xml version="1.0" encoding="UTF-8" standalone="no"?>
<svg
   xmlns:dc="http://purl.org/dc/elements/1.1/"
   xmlns:cc="http://creativecommons.org/ns#"
   xmlns:rdf="http://www.w3.org/1999/02/22-rdf-syntax-ns#"
   xmlns:svg="http://www.w3.org/2000/svg"
   xmlns="http://www.w3.org/2000/svg"
   xmlns:sodipodi="http://sodipodi.sourceforge.net/DTD/sodipodi-0.dtd"
   xmlns:inkscape="http://www.inkscape.org/namespaces/inkscape"
   width="100mm"
   height="50mm"
   viewBox="0 0 100 50"
   version="1.1"
   id="svg8"
   inkscape:version="1.0.1 (3bc2e813f5, 2020-09-07)"
   sodipodi:docname="harmony.svg">
  <defs
     id="defs2" />
  <sodipodi:namedview
     id="base"
     pagecolor="#ffffff"
     bordercolor="#666666"
     borderopacity="1.0"
     inkscape:pageopacity="0.0"
     inkscape:pageshadow="2"
     inkscape:zoom="1.979899"
     inkscape:cx="213.98534"
     inkscape:cy="108.75175"
     inkscape:document-units="mm"
     inkscape:current-layer="layer1"
     inkscape:document-rotation="0"
     showgrid="false"
     inkscape:window-width="1920"
     inkscape:window-height="1080"
     inkscape:window-x="0"
     inkscape:window-y="197"
     inkscape:window-maximized="1" />
  <metadata
     id="metadata5">
    <rdf:RDF>
      <cc:Work
         rdf:about="">
        <dc:format>image/svg+xml</dc:format>
        <dc:type
           rdf:resource="http://purl.org/dc/dcmitype/StillImage" />
        <dc:title />
      </cc:Work>
    </rdf:RDF>
  </metadata>
  <g
     inkscape:label="Layer 1"
     inkscape:groupmode="layer"
     id="layer1"
     transform="translate(-15.761671,-6.7591696)">
    <g
       id="g31"
       transform="matrix(1.4032544,0,0,2.041733,-41.444943,-146.08607)"
       style="fill:#552200">
      <rect
         style="fill:#552200;stroke-width:0.188082"
         id="rect26"
         width="71.262917"
         height="24.489"
         x="40.957565"
         y="74.860542" />
    </g>
    <g
       id="g419"
       transform="matrix(0.04596369,0,0,0.04596369,16.863568,15.160801)">
      <g
         id="g417">
        <path
           d="m 256,458.1 c -5.9,-2 -188.4,-60.9 -202.4,-333 7,0.5 122.3,11.2 202.4,-63.7 78.9,73.8 195.4,64.1 202.4,63.7 -17.2,280.2 -196.5,331 -202.4,333 z M 479.7,81.3 C 437,87.8 340,92.3 269.6,16.9 262.3,9 249.8,9 242.5,16.9 172,92.3 75,87.8 32.3,81.3 20.9,79.5 10.7,88.5 11,100 c 9.9,350.5 245,401 245,401 0,0 235.1,-50.4 245,-401 0.3,-11.5 -9.9,-20.5 -21.3,-18.7 z"
           id="path415" />
      </g>
    </g>
    <path
       style="fill:#ffffff;stroke-width:0.133635"
       d="m 27.560731,35.667123 c -4.275416,-2.21353 -7.056389,-6.559341 -7.931555,-12.394586 -0.110234,-0.734992 -0.200779,-1.569374 -0.201212,-1.854183 -7.68e-4,-0.505169 0.0091,-0.515857 0.403459,-0.436985 0.640334,0.128067 3.157565,-0.176315 4.374457,-0.528956 1.341582,-0.388776 2.789378,-1.094092 3.744628,-1.824255 l 0.705699,-0.539414 0.296562,0.27196 c 1.593829,1.461609 4.86872,2.567771 7.613066,2.571469 1.509268,0.002 1.387583,-0.205537 1.108496,1.890864 -0.818764,6.150223 -3.610793,10.694252 -7.890461,12.841726 -1.109294,0.556628 -1.152491,0.556673 -2.223139,0.0024 z"
       id="path476" />
    <text
       xml:space="preserve"
       style="font-style:normal;font-weight:normal;font-size:10.5833px;line-height:1.25;font-family:sans-serif;fill:#000000;fill-opacity:1;stroke:none;stroke-width:0.264583"
       x="24.954412"
       y="29.885462"
       id="text480"><tspan
         sodipodi:role="line"
         id="tspan478"
         x="24.954412"
         y="29.885462"
         style="stroke-width:0.264583">5</tspan></text>
    <rect
       style="fill:#ffffff;stroke-width:0.22642"
       id="rect474"
       width="30.321625"
       height="12.697316"
       x="14.554808"
       y="50.226788"
       transform="rotate(-38.364636)" />
    <path
       style="fill:#ffffff;stroke-width:0.505076"
       d="m 265.29149,87.898043 c 0.49201,-0.832891 2.56263,-3.754636 4.60139,-6.492766 2.03876,-2.738126 3.70872,-5.234686 3.71102,-5.547912 0.002,-0.313226 0.34512,-0.852445 0.76181,-1.198265 1.41273,-1.172471 0.76635,-2.377771 -3.4417,-6.417671 -11.70894,-11.241049 -28.81974,-18.456434 -48.32862,-20.379498 -3.19461,-0.314905 -6.30585,-0.665523 -6.91388,-0.779152 -0.96054,-0.179507 -7.22826,-7.137127 -7.22826,-8.023886 0,-0.178353 2.10238,-1.312793 4.67196,-2.520978 12.20142,-5.736969 29.56108,-7.130398 44.24181,-3.551211 6.95194,1.694893 13.78826,4.448326 23.54204,9.481909 6.5534,3.381984 8.11412,4.394103 8.35591,5.418792 0.32233,1.366065 1.79299,1.947718 2.68053,1.060171 0.30385,-0.303843 0.96718,-0.552442 1.47408,-0.552442 0.5069,0 1.12137,-0.51139 1.36549,-1.136422 0.43824,-1.122072 6.8791,-8.554708 7.6959,-8.880924 0.23185,-0.0926 0.42544,0.475613 0.4302,1.26269 0.005,0.787077 0.46015,3.135682 1.01198,5.219122 0.55183,2.083439 1.69669,9.129253 2.54414,15.657364 0.84745,6.528111 1.88897,13.567346 2.31451,15.642745 0.76303,3.721437 0.75853,3.785735 -0.32668,4.664483 -2.3664,1.916199 -14.9808,4.75504 -27.52342,6.194078 -8.89524,1.020573 -14.37662,1.765661 -15.59098,2.119295 -0.91228,0.26566 -0.91393,0.224295 -0.0492,-1.239522 z"
       id="path708"
       transform="matrix(0.26458333,0,0,0.26458333,15.761671,6.7591696)" />
    <g
       id="g147"
       transform="matrix(0.0775505,0,0,0.08338538,90.918921,28.927371)">
      <path
         style="fill:#ccd0d2"
         d="m 39.379,70.007 v 192.519 c 0,9.661 7.841,17.502 17.502,17.502 h 166.266 c 9.661,0 17.502,-7.841 17.502,-17.502 V 70.007 Z"
         id="path137-6" />
      <path
         style="fill:#ccd0d2"
         d="m 100.635,0 h 78.758 c 9.661,0 17.502,7.841 17.502,17.502 v 17.502 h -17.502 v -8.751 c 0,-4.83 -3.912,-8.751 -8.751,-8.751 h -61.256 c -4.839,0 -8.751,3.92 -8.751,8.751 v 8.751 H 83.133 V 17.502 C 83.133,7.841 90.974,0 100.635,0 Z"
         id="path139" />
      <path
         style="fill:#aeb1b3"
         d="m 74.382,240.648 c 0,7.254 5.881,13.126 13.126,13.126 7.246,0 13.126,-5.872 13.126,-13.126 V 113.49 H 74.382 Z M 179.393,113.49 v 127.159 c 0,7.246 5.881,13.126 13.126,13.126 7.246,0 13.126,-5.881 13.126,-13.126 V 113.49 Z m -52.506,127.158 c 0,7.246 5.881,13.126 13.126,13.126 7.246,0 13.126,-5.881 13.126,-13.126 V 113.49 h -26.253 z"
         id="path141" />
      <path
         style="fill:#aeb1b3"
         d="m 39.379,78.758 h 201.27 V 96.26 H 39.379 Z"
         id="path143" />
      <path
         style="fill:#d1d5d7"
         d="m 39.379,35.003 h 201.27 c 9.661,0 17.502,7.841 17.502,17.502 V 78.758 H 21.877 V 52.505 c 0,-9.661 7.841,-17.502 17.502,-17.502 z"
         id="path145" />
    </g>
    <g
       id="g579"
       transform="matrix(0.06963539,0.04965636,-0.04965636,0.06963539,81.691465,-1.5518235)">
      <path
         d="m 368.432,166.578 c -23.256,-19.584 -42.84,-42.84 -63.648,-64.872 -11.016,-11.628 -28.151,-34.884 -46.512,-36.108 -1.224,-1.836 -3.06,-3.06 -7.344,-2.448 -2.448,0.612 -4.284,2.448 -4.896,4.896 -3.672,14.076 -3.06,28.764 -3.06,43.452 -53.856,-7.344 -116.893,19.584 -159.732,48.348 -47.125,31.211 -83.845,83.232 -83.233,141.371 0,2.448 1.836,3.672 3.672,4.284 1.836,1.836 4.284,2.448 6.732,1.224 70.992,-50.184 145.044,-94.247 235.009,-78.947 h 0.611 c -5.508,17.748 -6.119,37.943 -6.119,56.304 0,5.508 4.896,7.344 8.567,6.732 1.836,2.447 6.12,4.283 9.18,1.224 40.393,-33.66 84.456,-71.604 111.385,-117.503 1.836,-1.837 1.836,-6.121 -0.612,-7.957 z m -20.197,16.524 c -10.403,15.3 -23.868,28.764 -37.332,42.228 -18.359,18.36 -39.168,34.272 -56.916,53.244 0,-16.524 -0.611,-33.048 0.612,-50.185 0,-1.836 -0.612,-3.06 -1.836,-3.672 1.836,-3.672 1.224,-8.567 -3.672,-9.792 -88.741,-18.972 -170.749,23.256 -239.292,77.112 9.18,-53.856 41.004,-94.248 86.904,-124.848 45.9,-30.6 93.637,-36.72 146.269,-42.84 v 0.612 c -0.612,4.896 7.344,5.508 8.568,1.224 0,-1.224 0.611,-1.836 0.611,-3.06 3.672,-1.836 4.896,-6.732 1.836,-8.568 1.836,-9.792 2.448,-19.584 3.672,-29.376 0,-1.836 0.612,-4.896 1.225,-7.956 7.956,10.404 21.42,19.584 30.6,28.764 17.748,18.36 34.272,37.944 52.632,56.304 9.791,8.569 14.075,8.569 6.119,20.809 z"
         id="path577" />
    </g>
    <path
       d="m 87.159887,16.337826 c 0.0715,-0.150526 0.05945,-0.32117 -0.0029,-0.462827 0.01764,-0.161186 -0.02138,-0.324845 -0.162705,-0.450374 -0.131534,-0.11684 -0.263045,-0.233749 -0.394491,-0.350612 -0.231154,-0.205396 -0.593114,-0.270224 -0.817948,0 -1.021224,1.227224 -2.089152,2.401144 -3.196233,3.532329 -0.82307,-0.830316 -1.656141,-1.649358 -2.483253,-2.469466 -0.290285,-0.287917 -0.710466,-0.19757 -0.893099,0.145421 -0.266029,0.142586 -0.481663,0.328475 -0.659969,0.645743 -0.0849,0.151161 -0.07829,0.341972 0,0.493676 0.533961,1.033852 1.566052,1.942832 2.414643,2.779341 -0.113553,0.109763 -0.22626,0.22057 -0.342105,0.32802 -1.143285,1.060255 -1.914462,1.732968 -0.483714,2.820079 0.01933,0.01468 0.03902,0.01143 0.05857,0.02001 0.02741,0.01366 0.05372,0.02327 0.0841,0.02867 0.0095,4.3e-4 0.0183,0.0021 0.02756,0.0013 0.02947,0.0026 0.05827,0.01068 0.08811,0.0043 0.769222,-0.162864 1.484559,-0.813826 2.133586,-1.530657 0.632244,0.672985 1.305469,1.315916 2.045761,1.697401 0.176255,0.09085 0.386386,0.0379 0.522079,-0.08917 0.227516,0.01855 0.434965,-0.134125 0.539082,-0.353539 0.01543,-0.0103 0.02535,-0.01617 0.04203,-0.02745 0.330782,-0.223157 0.361012,-0.667588 0.116242,-0.973923 -0.552713,-0.69165 -1.140235,-1.349143 -1.739169,-1.994977 1.078407,-1.137922 2.424959,-2.365169 3.104004,-3.793367 z"
       id="path137"
       style="fill:#d40000;stroke-width:0.0218279" />
    <g
       id="g149"
       transform="matrix(0.0775505,0,0,0.08338538,90.918921,28.927371)" />
    <g
       id="g151"
       transform="matrix(0.0775505,0,0,0.08338538,90.918921,28.927371)" />
    <g
       id="g153"
       transform="matrix(0.0775505,0,0,0.08338538,90.918921,28.927371)" />
    <g
       id="g155"
       transform="matrix(0.0775505,0,0,0.08338538,90.918921,28.927371)" />
    <g
       id="g157"
       transform="matrix(0.0775505,0,0,0.08338538,90.918921,28.927371)" />
    <g
       id="g159"
       transform="matrix(0.0775505,0,0,0.08338538,90.918921,28.927371)" />
    <g
       id="g161"
       transform="matrix(0.0775505,0,0,0.08338538,90.918921,28.927371)" />
    <g
       id="g163"
       transform="matrix(0.0775505,0,0,0.08338538,90.918921,28.927371)" />
    <g
       id="g165"
       transform="matrix(0.0775505,0,0,0.08338538,90.918921,28.927371)" />
    <g
       id="g167"
       transform="matrix(0.0775505,0,0,0.08338538,90.918921,28.927371)" />
    <g
       id="g169"
       transform="matrix(0.0775505,0,0,0.08338538,90.918921,28.927371)" />
    <g
       id="g171"
       transform="matrix(0.0775505,0,0,0.08338538,90.918921,28.927371)" />
    <g
       id="g173"
       transform="matrix(0.0775505,0,0,0.08338538,90.918921,28.927371)" />
    <g
       id="g175"
       transform="matrix(0.0775505,0,0,0.08338538,90.918921,28.927371)" />
    <g
       id="g177"
       transform="matrix(0.0775505,0,0,0.08338538,90.918921,28.927371)" />
    <g
       id="g581"
       transform="matrix(0.07349109,0,0,0.07349109,41.201624,0.19562141)" />
    <g
       id="g583"
       transform="matrix(0.07349109,0,0,0.07349109,41.201624,0.19562141)" />
    <g
       id="g585"
       transform="matrix(0.07349109,0,0,0.07349109,41.201624,0.19562141)" />
    <g
       id="g587"
       transform="matrix(0.07349109,0,0,0.07349109,41.201624,0.19562141)" />
    <g
       id="g589"
       transform="matrix(0.07349109,0,0,0.07349109,41.201624,0.19562141)" />
    <g
       id="g591"
       transform="matrix(0.07349109,0,0,0.07349109,41.201624,0.19562141)" />
    <g
       id="g593"
       transform="matrix(0.07349109,0,0,0.07349109,41.201624,0.19562141)" />
    <g
       id="g595"
       transform="matrix(0.07349109,0,0,0.07349109,41.201624,0.19562141)" />
    <g
       id="g597"
       transform="matrix(0.07349109,0,0,0.07349109,41.201624,0.19562141)" />
    <g
       id="g599"
       transform="matrix(0.07349109,0,0,0.07349109,41.201624,0.19562141)" />
    <g
       id="g601"
       transform="matrix(0.07349109,0,0,0.07349109,41.201624,0.19562141)" />
    <g
       id="g603"
       transform="matrix(0.07349109,0,0,0.07349109,41.201624,0.19562141)" />
    <g
       id="g605"
       transform="matrix(0.07349109,0,0,0.07349109,41.201624,0.19562141)" />
    <g
       id="g607"
       transform="matrix(0.07349109,0,0,0.07349109,41.201624,0.19562141)" />
    <g
       id="g609"
       transform="matrix(0.07349109,0,0,0.07349109,41.201624,0.19562141)" />
  </g>
</svg>
